<svg width="2260" height="704" fill="none" xmlns="http://www.w3.org/2000/svg"><path d="M1015.03 266.932v13.932h-46.506v153.974h-16.78V280.864H905v-13.932h110.03zm43.27 60.052c3.68-8.167 9.27-14.492 16.78-18.976 7.67-4.484 17.02-6.726 28.05-6.726v17.535h-4.55c-12.15 0-21.9 3.283-29.25 9.849-7.35 6.566-11.03 17.535-11.03 32.908v73.264h-16.78V303.684h16.78v23.3zm62.4 42.037c0-13.452 2.64-25.222 7.91-35.311 5.44-10.249 12.87-18.096 22.3-23.54 9.58-5.605 20.37-8.408 32.36-8.408 12.46 0 23.17 2.883 32.12 8.648 9.11 5.765 15.66 13.131 19.66 22.099v-28.825h16.78v131.154h-16.78v-29.065c-4.16 8.968-10.79 16.414-19.9 22.339-8.95 5.765-19.66 8.648-32.12 8.648-11.83 0-22.54-2.803-32.12-8.407-9.43-5.605-16.86-13.532-22.3-23.781-5.27-10.249-7.91-22.099-7.91-35.551zm114.35.24c0-10.569-2.16-19.857-6.48-27.864-4.31-8.007-10.22-14.172-17.74-18.496-7.35-4.324-15.5-6.486-24.45-6.486-9.27 0-17.58 2.082-24.93 6.246-7.35 4.163-13.18 10.248-17.5 18.255-4.15 7.847-6.23 17.215-6.23 28.105 0 10.729 2.08 20.177 6.23 28.345 4.32 8.007 10.15 14.172 17.5 18.496 7.35 4.163 15.66 6.245 24.93 6.245 8.95 0 17.1-2.162 24.45-6.486 7.52-4.323 13.43-10.489 17.74-18.496 4.32-8.007 6.48-17.295 6.48-27.864zm106.62-51.405h-30.44v116.982h-16.78V317.856h-18.22v-14.172h18.22v-9.128c0-14.252 3.59-24.741 10.78-31.467 7.36-6.726 19.18-10.089 35.48-10.089v14.413c-10.86 0-18.54 2.081-23.01 6.245-4.32 4.164-6.47 11.13-6.47 20.898v9.128h30.44v14.172zm77.95 0h-30.44v116.982h-16.78V317.856h-18.22v-14.172h18.22v-9.128c0-14.252 3.6-24.741 10.79-31.467 7.35-6.726 19.18-10.089 35.48-10.089v14.413c-10.87 0-18.54 2.081-23.02 6.245-4.31 4.164-6.47 11.13-6.47 20.898v9.128h30.44v14.172zm34.81-38.913c-3.36 0-6.23-1.201-8.63-3.604-2.4-2.402-3.6-5.364-3.6-8.887 0-3.523 1.2-6.406 3.6-8.648 2.4-2.402 5.27-3.603 8.63-3.603 3.36 0 6.23 1.201 8.63 3.603 2.4 2.242 3.59 5.125 3.59 8.648 0 3.523-1.19 6.485-3.59 8.887-2.4 2.403-5.27 3.604-8.63 3.604zm8.39 24.741v131.154h-16.78V303.684h16.78zm30.33 65.577c0-13.612 2.71-25.462 8.15-35.551 5.43-10.249 12.94-18.096 22.53-23.54 9.59-5.605 20.54-8.408 32.84-8.408 16.14 0 29.41 4.004 39.79 12.011 10.55 8.007 17.34 18.896 20.38 32.668h-17.98c-2.24-9.448-7.11-16.814-14.62-22.099-7.35-5.445-16.54-8.167-27.57-8.167-8.79 0-16.7 2.002-23.73 6.005-7.03 4.004-12.63 10.009-16.78 18.016-4 7.847-5.99 17.535-5.99 29.065 0 11.53 1.99 21.299 5.99 29.306 4.15 8.007 9.75 14.012 16.78 18.015 7.03 4.004 14.94 6.005 23.73 6.005 11.03 0 20.22-2.642 27.57-7.926 7.51-5.445 12.38-12.972 14.62-22.58h17.98c-3.04 13.452-9.83 24.261-20.38 32.428-10.54 8.167-23.81 12.251-39.79 12.251-12.3 0-23.25-2.723-32.84-8.167-9.59-5.605-17.1-13.452-22.53-23.541-5.44-10.249-8.15-22.179-8.15-35.791zm312.75-20.418c9.43 1.762 17.18 6.486 23.25 14.173 6.07 7.686 9.11 16.494 9.11 26.423 0 8.967-2.24 16.894-6.71 23.78-4.32 6.726-10.63 12.011-18.94 15.854s-18.14 5.765-29.48 5.765h-72.16V267.172h69.04c11.35 0 21.1 1.842 29.25 5.525 8.31 3.683 14.54 8.808 18.69 15.374 4.32 6.565 6.48 14.012 6.48 22.339 0 9.768-2.64 17.936-7.92 24.501-5.11 6.566-11.98 11.21-20.61 13.932zm-61.37-12.491h30.69c7.99 0 14.14-1.761 18.45-5.284 4.32-3.683 6.48-8.888 6.48-15.614 0-6.726-2.16-11.93-6.48-15.613-4.31-3.683-10.46-5.525-18.45-5.525h-30.69v42.036zm33.8 71.102c8.15 0 14.47-1.921 18.94-5.765 4.63-3.843 6.95-9.288 6.95-16.334 0-7.206-2.4-12.811-7.19-16.815-4.79-4.163-11.27-6.245-19.42-6.245h-33.08v45.159h33.8zm212.05-105.692v133.076h-33.8v-16.815c-4.32 5.766-9.99 10.329-17.02 13.692-6.87 3.203-14.38 4.805-22.53 4.805-10.39 0-19.58-2.162-27.57-6.486-7.99-4.484-14.3-10.97-18.94-19.457-4.47-8.647-6.71-18.896-6.71-30.747v-78.068h33.56v73.264c0 10.569 2.64 18.736 7.91 24.501 5.27 5.605 12.46 8.408 21.57 8.408 9.27 0 16.54-2.803 21.82-8.408 5.27-5.765 7.91-13.932 7.91-24.501v-73.264h33.8zm66.67-44.678v177.754h-33.56V257.084h33.56zm66.72 0v177.754h-33.56V257.084h33.56zM2207.74 437c-10.86 0-20.61-1.922-29.24-5.765-8.63-4.003-15.5-9.368-20.62-16.094-4.95-6.726-7.67-14.172-8.15-22.339h33.8c.64 5.124 3.12 9.368 7.43 12.731 4.48 3.363 9.99 5.044 16.54 5.044 6.4 0 11.35-1.281 14.86-3.843 3.68-2.563 5.52-5.845 5.52-9.849 0-4.324-2.24-7.526-6.71-9.608-4.32-2.242-11.27-4.644-20.86-7.206-9.91-2.403-18.06-4.885-24.45-7.447-6.23-2.562-11.67-6.486-16.3-11.77-4.47-5.285-6.71-12.411-6.71-21.379 0-7.366 2.08-14.092 6.23-20.177 4.32-6.086 10.39-10.89 18.22-14.413 7.99-3.523 17.34-5.284 28.05-5.284 15.82 0 28.44 4.003 37.87 12.01 9.43 7.847 14.62 18.496 15.58 31.948h-32.12c-.48-5.285-2.72-9.448-6.71-12.491-3.84-3.203-9.03-4.804-15.58-4.804-6.08 0-10.79 1.121-14.15 3.363-3.19 2.242-4.79 5.364-4.79 9.368 0 4.484 2.24 7.927 6.71 10.329 4.48 2.242 11.43 4.564 20.86 6.966 9.58 2.402 17.5 4.884 23.73 7.446 6.23 2.563 11.58 6.566 16.06 12.011 4.63 5.284 7.03 12.33 7.19 21.138 0 7.687-2.16 14.573-6.47 20.658-4.16 6.085-10.23 10.89-18.22 14.413-7.83 3.363-17.02 5.044-27.57 5.044z" fill="#fff"/><g clip-path="url(#clip0_621_330)"><path d="M413.364 704a65.79 65.79 0 01-22.252-3.86 38.084 38.084 0 00-1.464-.491 52.155 52.155 0 00-15.648-2.38 52.19 52.19 0 00-15.666 2.385c-.549.174-1.007.328-1.427.477A65.781 65.781 0 01334.635 704c-23.782 0-45.342-12.736-55.881-32.353-14.061-6.722-25.38-17.94-33.01-32.809-5.69-11.09-9.313-25.801-10.052-40.683l-13.913-42.005c-5.812-17.543-15.652-24.231-24.42-29.119-3.319-1.856-6.07-3.507-8.67-5.208-14.623-9.589-24.091-20.948-28.953-34.737-2.173-6.164-3.296-12.472-3.369-18.896-10.945 2.372-21.649 3.57-32.025 3.57-60.463 0-89.49-39.821-90.696-41.519l-12.537-17.62 21.3-6.918c18.197-5.908 33.682-17.454 44.36-27.188-53.677-22.261-74.365-56.362-82.094-82.628-7.164-24.347-6.077-51.743 3.144-79.237 8.323-24.812 22.667-48.412 41.481-68.242 54.318-57.258 68.266-110.822 68.4-111.355l7.786-30.924 22.193 23.95c26.566 28.667 38.869 63.844 35.581 101.728-2.456 28.284-13.45 53.416-22.118 66.344-5.845 8.718-8.212 16.515-6.666 21.962 1.221 4.3 5.372 8.236 12.337 11.696 2.155 1.07 6.31 2.346 13.862 2.346 19.431-.005 44.378-8.271 56.603-12.809 6.979-9.414 16.982-17.369 29.24-23.212 13.643-6.496 29.164-9.934 44.885-9.934 10.019 0 20.109 1.36 29.989 4.039l.788.213a122.602 122.602 0 0031.82 4.193 122.57 122.57 0 0031.859-4.206l.748-.2c9.879-2.679 19.972-4.039 29.988-4.039 15.725 0 31.243 3.438 44.888 9.934 12.259 5.843 22.261 13.798 29.241 23.212 12.222 4.538 37.17 12.809 56.599 12.809 7.555 0 11.71-1.276 13.863-2.346 6.966-3.46 11.117-7.396 12.336-11.696 1.55-5.447-.82-13.244-6.662-21.962-8.67-12.928-19.664-38.06-22.12-66.344-3.286-37.884 9.014-73.06 35.58-101.728l22.193-23.95 7.786 30.924c.131.499 14.502 54.54 68.4 111.355 18.817 19.83 33.16 43.43 41.481 68.242 9.222 27.494 10.31 54.89 3.145 79.237-7.731 26.275-28.429 60.385-82.132 82.645 10.641 9.713 26.099 21.229 44.395 27.171l21.295 6.918-12.526 17.62c-1.21 1.694-30.228 41.515-90.689 41.519h-.013c-10.378 0-21.078-1.198-32.023-3.57-.072 6.424-1.196 12.732-3.367 18.896-4.863 13.789-14.33 25.148-28.95 34.732-2.606 1.706-5.357 3.357-8.665 5.208-8.779 4.893-18.617 11.581-24.432 29.124l-13.913 42.005c-.739 14.882-4.36 29.593-10.052 40.683-7.627 14.869-18.948 26.087-33.006 32.809C458.706 691.264 437.148 704 413.364 704z" fill="#fff"/><path d="M631.44 371.537c132.767-38.87 112.179-151.241 54.306-212.248-57.873-61.003-72.343-118.47-72.343-118.47-55.267 59.642-24.4 129.91-11.865 148.609 12.54 18.703 17.366 42.124-12.25 56.831-24.912 12.37-74.999-5.707-90.28-11.759-.059-.103-.118-.209-.182-.312-10.704-17.735-35.716-29.648-62.232-29.648-8.393 0-16.864 1.143-25.18 3.399-.181.047-.779.209-.779.209a140.796 140.796 0 01-36.636 4.837 140.804 140.804 0 01-36.637-4.837l-.777-.209c-8.319-2.256-16.791-3.399-25.184-3.399-26.516 0-51.524 11.913-62.23 29.648-.062.103-.12.209-.182.312-15.282 6.052-65.37 24.129-90.28 11.759-29.614-14.707-24.791-38.128-12.252-56.831 12.539-18.699 43.405-88.967-11.864-148.61 0 0-14.468 57.468-72.342 118.471-57.874 61.007-78.46 173.378 54.305 212.248 0 0-27.394 36.268-68.484 49.615 0 0 41.517 58.354 131.508 22.759-6.402 13.411-7.537 26.198-3.366 38.026 3.638 10.322 10.962 18.981 22.39 26.471 2.252 1.471 4.664 2.922 7.605 4.564 11.81 6.585 24.845 16.281 32.144 38.315l4.729 14.276 9.872 29.807c.39 13.312 3.455 26.675 8.424 36.362 8.169 15.922 19.81 23.788 30.603 27.554 6.313 16.784 23.219 28.373 42.653 28.373a47.47 47.47 0 0016.071-2.789 50.13 50.13 0 012.128-.713 70.473 70.473 0 0121.165-3.229h.001a70.447 70.447 0 0121.164 3.229c.797.248 1.477.478 2.13.713a47.473 47.473 0 0016.07 2.789c19.433 0 36.342-11.589 42.655-28.373 10.79-3.766 22.433-11.632 30.599-27.554 4.972-9.687 8.035-23.05 8.425-36.362l9.875-29.807 4.727-14.276c7.301-22.034 20.335-31.73 32.145-38.315 2.941-1.642 5.352-3.093 7.605-4.564 11.425-7.49 18.753-16.149 22.387-26.471 4.174-11.828 3.037-24.615-3.362-38.026 89.99 35.595 131.507-22.759 131.507-22.759-41.091-13.347-68.486-49.615-68.486-49.615z" fill="#000"/><path d="M426.09 646.789c-.023.115-.041.23-.063.345-1.41 7.452-9.676 11.926-17.195 9.23a91.209 91.209 0 00-3.371-1.13c-20.389-6.411-42.532-6.411-62.915 0a88.919 88.919 0 00-3.374 1.13c-7.518 2.696-15.782-1.778-17.195-9.23-.023-.115-.04-.23-.063-.345 0 0 9.879-5.665 23.421-10.071 8.606-2.798 18.693-5.088 28.665-5.088 25.66 0 52.09 15.159 52.09 15.159z" fill="#B0182C"/><path d="M457.435 618.467c-6.757 13.163-17.941 17.522-39.745 9.533-21.794-7.994-43.692-6.948-43.692-6.948s-21.894-1.046-43.695 6.948c-21.795 7.989-32.988 3.63-39.736-9.533-.625-1.216-1.25-2.709-1.835-4.423-4.45-12.937-6.909-38.564 7.999-54.017 7.014-7.268 17.286-10.928 27.692-10.258 5.047.32 11.129 1.271 15.696 2.18 10.087 2 25.221 3.941 33.879 3.941 8.656 0 23.797-1.941 33.885-3.941 4.564-.909 10.65-1.86 15.694-2.18 10.406-.67 20.68 2.99 27.686 10.258 16.891 17.501 11.502 48.054 6.172 58.44z" fill="#E2232A"/><path d="M373.999 631.63c-9.971 0-20.059 2.29-28.665 5.088 3.201 3.263 12.275 10.681 28.665 10.681 16.388 0 25.465-7.418 28.665-10.681-8.606-2.798-18.694-5.088-28.665-5.088z" fill="#EA645D"/><path d="M490.599 439.906c-.014.073-.018.12-.018.12a42.464 42.464 0 01-4.015 4.862c-4.895 5.093-10.773 8.245-16.71 10.148-3.367-.551-10.26-2.043-17.452-5.742a50.573 50.573 0 01-5.574-3.314s9.838-5.72 17.62-15.295c8.112-9.977 17.004-16.477 17.004-16.477s11.062 12.25 9.145 25.698z" fill="#fff"/><path d="M434.478 623.547c-15.993-2.977-28.551-16.341-60.479-16.341-31.929 0-44.487 13.364-60.478 16.341-11.736 2.192-20.799-5.34-24.787-9.503.585 1.714 1.21 3.207 1.835 4.423 6.748 13.163 17.941 17.522 39.736 9.533 21.801-7.994 43.694-6.948 43.694-6.948s21.894-1.046 43.693 6.948c21.799 7.989 32.988 3.63 39.736-9.533.625-1.216 1.251-2.709 1.835-4.423-3.988 4.163-13.047 11.695-24.785 9.503z" fill="#B0182C"/><path d="M607.905 343.94c-.114.026-.236.06-.354.081-11.257-9.891-18.263-14.241-18.263-14.241 89.809-18.128 80.731-78.436 80.731-78.436-5.207 13.794-23.724 39.762-64.43 51.564-32.929 9.546-61.943 2.457-71.827-.597-3.829-7.234-8.973-14.49-14.665-22.513a816.304 816.304 0 01-3.304-4.662c-1.378-1.962-2.515-3.992-3.494-6.087 11.049 6.445 34.474 16.81 67.97 14.43 47.894-3.404 67.857-43.711 62.069-74.213-5.787-30.501-40.991-55.245-34.433-109.713 0 0 10.636 25.801 33.441 56.627a312.896 312.896 0 0018.644 22.9c35.694 39.762 79.867 132.546-52.085 164.86z" fill="#fff"/><path d="M657.39 426.283s-30.894 15.769-63.153 2.022c0 0 16.564-1.506 26.761-3.813 0 0-13.573-6.923-26.403-19.996-12.83-13.074-21.123-17.411-35.594-23.063 0 0-1.155-15.159-7.523-25.78-5.519-9.213-13.487-10.403-15.512-10.557-.313-.017-.476-.021-.476-.021s2.701-3.813 4.269-7.443c0 0 31.977 2.086 56.137 31.636l6.739 8.241c18.889 23.041 26.62 31.363 54.755 48.774z" fill="#E2232A"/><path d="M414.472 589.232c-1.862.444-3.82.585-5.732.316-1.664-.235-3.399-.793-4.215-2.039-1.817-2.768 2.189-9.17 10.79-13.798 8.602-4.628 17.684-5.494 20.353-1.088 2.67 4.402-3.471 10.395-7.69 12.48-3.173 1.57-10.206 3.344-13.506 4.129zm-70.997-1.719c-.619.947-1.777 1.497-3.027 1.805a11.6 11.6 0 01-1.192.23c-1.91.269-3.866.128-5.729-.316-2.854-.682-8.508-2.103-12.033-3.489a17.342 17.342 0 01-1.469-.64 17.132 17.132 0 01-2.42-1.48c-3.339-2.435-6.672-6.428-5.776-9.827.006-.013.006-.017.006-.017.105-.397.272-.785.498-1.16 2.668-4.402 11.749-3.54 20.348 1.092 8.607 4.628 12.611 11.03 10.794 13.802z" fill="#421938"/><path d="M657.39 426.283s-30.894 15.769-63.153 2.022c0 0 16.564-1.506 26.761-3.813 0 0-13.573-6.923-26.403-19.996-12.83-13.074-21.123-17.411-35.594-23.063 0 0-1.155-15.159-7.523-25.78-6.313-10.535-15.834-10.578-15.988-10.578 0 0 18.205-2.768 42.419 20.38 24.209 23.152 36.074 51.112 79.481 60.828z" fill="#B0182C"/><path d="M602.635 377.509c-31.864-29.478-62.541-32.178-66.669-32.413-.313-.017-.476-.021-.476-.021s2.701-3.813 4.269-7.443c0 0 31.977 2.086 56.137 31.636l6.739 8.241z" fill="#EA645D"/><path d="M490.599 439.907a1.244 1.244 0 00-.018.119c-3.095-13.129-10.215-16.899-10.215-16.899s-4.845 2.452-12.15 12.386c-5.638 7.678-12.826 12.144-15.812 13.782a50.73 50.73 0 01-5.574-3.314s9.838-5.72 17.62-15.296c8.112-9.977 17.004-16.477 17.004-16.477s11.062 12.25 9.145 25.699z" fill="#C4C0C5"/><path d="M530.871 483.379c-1.732 1.13-3.617 2.243-5.624 3.365-13.51 7.533-35.404 21.83-46.543 55.467 0 0-19.243-27.78-27.201-53.245 0 0 5.302 2.005 12.544 3.255 4.084.704 8.783 1.169 13.496.9 0 0-28.791-18.998-39.4-36.793 0 0 16.093 3.707 31.71-1.292 5.937-1.903 11.814-5.055 16.709-10.148a42.36 42.36 0 004.015-4.862c11.52-16.336 7.478-35.825 7.374-36.337.24.201 5.637 4.952 7.763 11.837 0 0 7.759-13.483 8.148-31.641 0 0-29.131 5.537-46.778 21.425-17.652 15.884-24.482 26.211-39.165 25.78-16.274-.478-9.984-23.285-9.984-23.285s-24.55 14.938-10.85 42.897c0 0-8.057 6.577-6.512 16.161 0 0 9.359-7.763 20.303-2.64 0 0 3.172 13.184 8.982 29.568 4.328 12.194 10.116 26.172 17.158 37.795 0 0-20.325-4.901-38.992.136-18.663 5.042-34.027 5.311-34.027 5.311s-15.365-.269-34.023-5.311c-18.67-5.037-38.996-.136-38.996-.136 16.494-27.234 26.142-67.363 26.142-67.363 10.944-5.123 20.302 2.64 20.302 2.64 1.545-9.584-6.511-16.161-6.511-16.161 13.699-27.959-10.851-42.897-10.851-42.897s6.291 22.807-9.983 23.285c-14.683.431-21.512-9.896-39.163-25.78-17.652-15.888-46.779-21.425-46.779-21.425.387 18.158 8.148 31.641 8.148 31.641 2.124-6.885 7.523-11.636 7.761-11.837-.087.418-2.795 13.492 2.488 27.175a42.493 42.493 0 004.885 9.162 42.382 42.382 0 004.017 4.862c4.895 5.093 10.77 8.245 16.708 10.148 15.62 4.999 31.709 1.292 31.709 1.292-10.609 17.795-39.401 36.793-39.401 36.793 13.097.746 26.043-4.155 26.043-4.155-7.958 25.465-27.201 53.245-27.201 53.245-11.14-33.637-33.034-47.934-46.541-55.467-13.502-7.541-21.506-14.621-13.213-31.141 8.293-16.52 12.345-31.683 12.345-31.683-14.949-21.152-14.949-49.026-4.822-58.465 10.129-9.44 45.431 3.992 45.431 3.992-16.592-24.509-21.772-29.93-22.183-41.395-.318-8.876 7.426-18.793 19.388-35.765 11.957-16.976 12.443-34.409 17.652-43.029 5.208-8.629 25.366-18.793 50.35-11.986a175.249 175.249 0 0046.298 6.215 175.226 175.226 0 0046.299-6.215c24.985-6.807 45.143 3.357 50.35 11.986 2.633 4.355 4.056 10.962 6.372 18.627 2.257 7.494 5.365 16.003 11.28 24.402 11.964 16.972 19.705 26.889 19.387 35.765-.412 11.465-5.588 16.886-22.184 41.395 0 0 35.304-13.432 45.433-3.992 10.129 9.439 10.129 37.313-4.822 58.465 0 0 4.052 15.163 12.345 31.683 7.061 14.063 2.311 21.288-7.586 27.776z" fill="#E2232A"/><path d="M257.402 439.906l.017.12a42.382 42.382 0 004.017 4.862c4.895 5.093 10.77 8.245 16.707 10.148 3.369-.551 10.262-2.043 17.455-5.742a50.666 50.666 0 005.574-3.314s-9.839-5.72-17.623-15.295c-8.108-9.977-17.003-16.477-17.003-16.477s-11.06 12.25-9.144 25.698z" fill="#fff"/><path d="M90.608 426.283s30.893 15.769 63.151 2.022c0 0-16.563-1.506-26.76-3.813 0 0 13.571-6.923 26.402-19.996 12.83-13.074 21.124-17.411 35.592-23.063 0 0 1.158-15.159 7.523-25.78 5.522-9.213 13.491-10.403 15.517-10.557.312-.017.474-.021.474-.021s-2.702-3.813-4.271-7.443c0 0-31.975 2.086-56.137 31.636l-6.737 8.241c-18.89 23.041-26.622 31.363-54.754 48.774z" fill="#E2232A"/><path d="M90.608 426.283s30.893 15.769 63.151 2.022c0 0-16.563-1.506-26.76-3.813 0 0 13.571-6.923 26.402-19.996 12.83-13.074 21.124-17.411 35.592-23.063 0 0 1.158-15.159 7.523-25.78 6.315-10.535 15.835-10.578 15.991-10.578 0 0-18.207-2.768-42.421 20.38-24.208 23.152-36.073 51.112-79.478 60.828z" fill="#B0182C"/><path d="M145.363 377.509c31.865-29.478 62.538-32.178 66.671-32.413.312-.017.474-.021.474-.021s-2.703-3.813-4.271-7.443c0 0-31.975 2.086-56.138 31.636l-6.736 8.241z" fill="#EA645D"/><path d="M257.402 439.907l.017.119c3.096-13.129 10.214-16.899 10.214-16.899s4.845 2.452 12.154 12.386c5.637 7.678 12.825 12.144 15.811 13.782a50.823 50.823 0 005.574-3.314s-9.839-5.72-17.623-15.296c-8.108-9.977-17.003-16.477-17.003-16.477s-11.06 12.25-9.144 25.699z" fill="#C4C0C5"/><path d="M438.146 456.328s16.093 3.707 31.71-1.292c0 0 13.623 6.65 33.011 2.747 0 0-12.921 16.52-39.831 13.073 0 0 5.497 11.035 14.511 22.265 0 0-28.792-18.998-39.401-36.793z" fill="#B0182C"/><path d="M530.871 483.379c-1.732 1.13-3.617 2.243-5.624 3.365-13.51 7.533-35.404 21.83-46.543 55.467 0 0-19.243-27.78-27.201-53.245 0 0 5.302 2.005 12.544 3.255 2.035 4.734 6.93 15.167 13.256 21.937 0 0 18.327-26.923 53.568-30.779zm-221.019-27.051s-16.089 3.707-31.709-1.292c0 0-13.624 6.65-33.011 2.747 0 0 12.923 16.52 39.834 13.073 0 0-5.498 11.035-14.514 22.265 0 0 28.792-18.998 39.4-36.793zm-92.726 27.051c1.73 1.13 3.617 2.243 5.625 3.365 13.508 7.533 35.402 21.83 46.542 55.467 0 0 19.243-27.78 27.201-53.245 0 0-5.301 2.005-12.547 3.255-2.032 4.734-6.927 15.167-13.253 21.937 0 0-18.329-26.923-53.568-30.779zm264.18-141.251c-7.378 20.512-48.686 50.834-54.184 53.624-5.497 2.794-15.793-8.872-15.793-8.872-17.267 25.873-37.33 25.873-37.33 25.873s-20.065 0-37.328-25.873c0 0-10.296 11.666-15.794 8.872-5.498-2.79-46.808-33.112-54.187-53.624-7.379-20.521 5.208-36.042 5.208-36.042s5.932 15.884 23.289 24.231c-.179-.606-10.695-35.867 6.95-58.819 0 0 36.658 30.501 71.862 30.501 35.204 0 71.863-30.501 71.863-30.501 17.643 22.952 7.129 58.213 6.947 58.819 17.358-8.347 23.29-24.231 23.29-24.231s12.59 15.521 5.207 36.042zm-87.579 95.322s-.385 11.845-3.327 17.019c-2.945 5.178-16.401 12.889-16.401 12.889s-13.455-7.711-16.401-12.889c-2.94-5.174-3.328-17.019-3.328-17.019s11.146 8.211 19.729 8.211c8.584 0 19.728-8.211 19.728-8.211zm36.133 56.341c-12.037-11.026-22.705-7.35-22.705-7.35 9.191 5.179 8.756 13.829 8.756 13.829-14.036-4.424-41.912 12.254-41.912 12.254s-27.877-16.678-41.912-12.254c0 0-.434-8.65 8.756-13.829 0 0-10.666-3.676-22.703 7.35-4.329 12.194-10.117 26.172-17.16 37.795 0 0 20.325-4.901 38.995.136 18.659 5.042 34.024 5.311 34.024 5.311s15.364-.269 34.026-5.311c18.667-5.037 38.993-.136 38.993-.136-7.043-11.623-12.83-25.601-17.158-37.795z" fill="#B0182C"/><path d="M607.906 343.94c-.113.026-.235.06-.353.081-11.258-9.891-18.264-14.241-18.264-14.241 89.809-18.128 80.732-78.436 80.732-78.436s.666-4.658.843-11.563c2.601 1.603 7.55 4.999 10.976 9.383 0 0-.843-12.471-11.452-23.557v-.004c-.711-7.473-2.293-15.56-5.475-22.739-6.14-13.854-16.954-31.363-23.566-46.684a312.92 312.92 0 0018.645 22.9c35.693 39.762 79.866 132.546-52.086 164.86z" fill="#C4C0C5"/><path d="M140.097 343.94c.116.026.237.06.353.081 11.257-9.891 18.265-14.241 18.265-14.241-89.808-18.128-80.734-78.436-80.734-78.436 5.21 13.794 23.728 39.762 64.431 51.564 32.93 9.546 61.942 2.457 71.827-.597 3.831-7.234 8.976-14.49 14.665-22.513 1.065-1.493 2.17-3.05 3.305-4.662a39.91 39.91 0 003.495-6.087c-11.048 6.445-34.475 16.81-67.972 14.43-47.891-3.404-67.857-43.711-62.07-74.213 5.788-30.501 40.992-55.245 34.435-109.713 0 0-10.637 25.801-33.439 56.627a313.024 313.024 0 01-18.647 22.9C52.32 218.842 8.145 311.626 140.097 343.94z" fill="#fff"/><path d="M470.648 249.258c-5.208-8.628-25.366-18.793-50.35-11.985-.249.068-.499.136-.748.2a175.182 175.182 0 01-45.55 6.014 175.191 175.191 0 01-46.295-6.214c-24.985-6.808-45.142 3.357-50.351 11.985-2.633 4.355-4.057 10.962-6.372 18.627 6.297-7.451 19.695-20.926 33.955-20.533 19.676.541 39.931 10.706 69.062 10.706h.005c29.131 0 49.385-10.165 69.062-10.706 14.262-.393 27.659 13.082 33.954 20.533-2.316-7.665-3.739-14.272-6.372-18.627z" fill="#EA645D"/><path d="M140.097 343.94c.116.026.237.06.353.081 11.257-9.891 18.265-14.241 18.265-14.241-89.808-18.128-80.734-78.436-80.734-78.436s-.665-4.658-.839-11.563c-2.604 1.603-7.553 4.999-10.978 9.383 0 0 .844-12.471 11.453-23.557v-.004c.712-7.473 2.292-15.56 5.474-22.739 6.141-13.854 16.952-31.363 23.567-46.684a313.024 313.024 0 01-18.647 22.9C52.32 218.842 8.145 311.626 140.097 343.94z" fill="#C4C0C5"/><path d="M320.396 602.024c-17.478-8.718-8.843-27.631-8.565-28.228-.897 3.4 2.437 7.392 5.776 9.827a10.144 10.144 0 00-.249 3.447 78.557 78.557 0 003.038 14.954zm107.208 0c17.475-8.718 8.842-27.631 8.566-28.228.897 3.4-2.439 7.392-5.779 9.827a10.02 10.02 0 01.25 3.447 78.544 78.544 0 01-3.037 14.954zm-175.07-171.16c-2.217 8.322-3.496 16.703-3.496 16.703-10.03-13.845-6.754-32.041-6.754-32.041 2.124-6.884 7.524-11.636 7.761-11.837-.087.418-2.795 13.492 2.489 27.175zm242.93 0c2.216 8.322 3.494 16.703 3.494 16.703 10.029-13.845 6.757-32.041 6.757-32.041-2.126-6.884-7.523-11.636-7.763-11.837.086.418 2.796 13.492-2.488 27.175z" fill="#B0182C"/></g><defs><clipPath id="clip0_621_330"><path fill="#fff" d="M0 0h748v704H0z"/></clipPath></defs></svg>